<?xml version="1.0" standalone="no"?><!DOCTYPE svg PUBLIC "-//W3C//DTD SVG 1.1//EN" "http://www.w3.org/Graphics/SVG/1.1/DTD/svg11.dtd"><svg t="1619961299652" class="icon" viewBox="0 0 1024 1024" version="1.1" xmlns="http://www.w3.org/2000/svg" p-id="2017" xmlns:xlink="http://www.w3.org/1999/xlink" width="128" height="128"><defs><style type="text/css"></style></defs><path d="M589.653653 511.965156L1007.212322 84.218892a49.776524 49.776524 0 0 0-0.730056-70.018977 49.046468 49.046468 0 0 0-69.687133 0.663687L519.966519 441.946179 85.882044 14.199915a49.079653 49.079653 0 0 0-69.687133 0.663687 49.776524 49.776524 0 0 0 0.663687 70.018977l433.453972 427.082577L16.858598 939.047734a49.776524 49.776524 0 0 0-0.663687 70.018977 49.013284 49.013284 0 0 0 69.687133 0.663687l434.084475-427.746264 416.828614 427.082577a49.013284 49.013284 0 0 0 35.241779 14.932957 48.415966 48.415966 0 0 0 34.511723-14.26927 49.776524 49.776524 0 0 0 0.730056-70.018977z" p-id="2018"></path></svg>